<svg width="22" height="22" viewBox="0 0 22 22" fill="none" xmlns="http://www.w3.org/2000/svg">
<path d="M9.30176 1.42822L10.3857 0.344238C10.8447 -0.114746 11.5869 -0.114747 12.041 0.344238L21.5332 9.83154C21.9922 10.2905 21.9922 11.0327 21.5332 11.4868L12.041 20.979C11.582 21.438 10.8398 21.438 10.3857 20.979L9.30176 19.895C8.83789 19.4312 8.84766 18.6743 9.32129 18.2202L15.2051 12.6147L1.17187 12.6147C0.522461 12.6147 -2.1095e-07 12.0923 -2.67723e-07 11.4429L-4.04321e-07 9.88037C-4.61095e-07 9.23096 0.52246 8.7085 1.17187 8.7085L15.2051 8.7085L9.32129 3.10303C8.84277 2.64893 8.83301 1.89209 9.30176 1.42822Z" fill="#3A4049"/>
</svg>
