<svg width="10" height="10" viewBox="0 0 10 10" fill="none" xmlns="http://www.w3.org/2000/svg">
<path d="M9.70615 1.70664C10.0968 1.31602 10.0968 0.681641 9.70615 0.291016C9.31553 -0.0996094 8.68115 -0.0996094 8.29053 0.291016L4.9999 3.58477L1.70615 0.294141C1.31553 -0.0964844 0.681152 -0.0964844 0.290527 0.294141C-0.100098 0.684766 -0.100098 1.31914 0.290527 1.70977L3.58428 5.00039L0.293652 8.29414C-0.0969726 8.68476 -0.0969726 9.31914 0.293652 9.70977C0.684277 10.1004 1.31865 10.1004 1.70928 9.70977L4.9999 6.41602L8.29365 9.70664C8.68428 10.0973 9.31865 10.0973 9.70928 9.70664C10.0999 9.31602 10.0999 8.68164 9.70928 8.29102L6.41553 5.00039L9.70615 1.70664Z" fill="#2D5194"/>
</svg>
